<svg xmlns="http://www.w3.org/2000/svg" viewBox="0 0 900 650">
  <defs>
    <linearGradient id="bg" x1="0" y1="0" x2="1" y2="1">
      <stop offset="0%" stop-color="#0b6ef6"/>
      <stop offset="100%" stop-color="#0f1d40"/>
    </linearGradient>
    <linearGradient id="drop" x1="0" y1="0" x2="1" y2="1">
      <stop offset="0%" stop-color="#08b7d7"/>
      <stop offset="100%" stop-color="#0b6ef6"/>
    </linearGradient>
  </defs>
  <rect width="900" height="650" fill="url(#bg)"/>
  <rect x="28" y="26" width="260" height="90" rx="18" fill="#ffffff" opacity="0.95"/>
  <circle cx="74" cy="71" r="28" fill="#eef7ff"/>
  <path d="M74 47c-8 12-13 20-13 28a13 13 0 0 0 26 0c0-8-5-16-13-28z" fill="url(#drop)"/>
  <text x="112" y="77" font-family="Arial" font-size="28" fill="#0f1d40" font-weight="700">WaterSupply</text>
  <rect x="260" y="130" width="380" height="360" rx="40" fill="#ffffff"/>
  <rect x="410" y="85" width="90" height="65" rx="18" fill="#f2f8ff"/>
  <rect x="290" y="265" width="320" height="95" rx="18" fill="#08b7d7"/>
  <text x="450" y="325" font-family="Arial" font-size="42" text-anchor="middle" fill="#ffffff">3L-10L</text>
  <text x="450" y="585" font-family="Arial" font-size="54" text-anchor="middle" fill="#ffffff">WaterSupply Can</text>
</svg>
